<svg width="52" height="52" viewBox="0 0 52 52" fill="none" xmlns="http://www.w3.org/2000/svg">
<path d="M31.8757 26.0004L49.7924 8.12545C50.577 7.34085 51.0178 6.2767 51.0178 5.16711C51.0178 4.05752 50.577 2.99338 49.7924 2.20878C49.0078 1.42418 47.9436 0.983398 46.834 0.983398C45.7245 0.983398 44.6603 1.42418 43.8757 2.20878L26.0007 20.1254L8.12572 2.20878C7.34112 1.42418 6.27698 0.983398 5.16739 0.983398C4.0578 0.983398 2.99365 1.42418 2.20906 2.20878C1.42446 2.99338 0.983673 4.05752 0.983673 5.16711C0.983673 6.2767 1.42446 7.34085 2.20906 8.12545L20.1257 26.0004L2.20906 43.8754C1.81852 44.2628 1.50855 44.7236 1.29701 45.2314C1.08547 45.7391 0.976562 46.2837 0.976562 46.8338C0.976562 47.3838 1.08547 47.9284 1.29701 48.4362C1.50855 48.9439 1.81852 49.4048 2.20906 49.7921C2.5964 50.1826 3.05724 50.4926 3.56499 50.7042C4.07273 50.9157 4.61734 51.0246 5.16739 51.0246C5.71744 51.0246 6.26204 50.9157 6.76979 50.7042C7.27754 50.4926 7.73838 50.1826 8.12572 49.7921L26.0007 31.8754L43.8757 49.7921C44.2631 50.1826 44.7239 50.4926 45.2316 50.7042C45.7394 50.9157 46.284 51.0246 46.834 51.0246C47.3841 51.0246 47.9287 50.9157 48.4365 50.7042C48.9442 50.4926 49.405 50.1826 49.7924 49.7921C50.1829 49.4048 50.4929 48.9439 50.7044 48.4362C50.916 47.9284 51.0249 47.3838 51.0249 46.8338C51.0249 46.2837 50.916 45.7391 50.7044 45.2314C50.4929 44.7236 50.1829 44.2628 49.7924 43.8754L31.8757 26.0004Z" fill="#CB4293"/>
</svg>
