<svg width="26" height="26" viewBox="0 0 26 26" fill="none" xmlns="http://www.w3.org/2000/svg">
<path d="M15.9379 12.9997L24.8962 4.06224C25.2885 3.66994 25.5089 3.13786 25.5089 2.58307C25.5089 2.02827 25.2885 1.4962 24.8962 1.1039C24.5039 0.711603 23.9718 0.491211 23.417 0.491211C22.8622 0.491211 22.3302 0.711603 21.9379 1.1039L13.0004 10.0622L4.06286 1.1039C3.67056 0.711603 3.13849 0.491211 2.58369 0.491211C2.0289 0.491211 1.49683 0.711603 1.10453 1.1039C0.712228 1.4962 0.491837 2.02827 0.491837 2.58307C0.491837 3.13786 0.712228 3.66994 1.10453 4.06224L10.0629 12.9997L1.10453 21.9372C0.90926 22.1309 0.754273 22.3613 0.648504 22.6152C0.542736 22.8691 0.488281 23.1414 0.488281 23.4164C0.488281 23.6914 0.542736 23.9637 0.648504 24.2176C0.754273 24.4715 0.90926 24.7019 1.10453 24.8956C1.2982 25.0908 1.52862 25.2458 1.78249 25.3516C2.03637 25.4574 2.30867 25.5118 2.58369 25.5118C2.85872 25.5118 3.13102 25.4574 3.3849 25.3516C3.63877 25.2458 3.86919 25.0908 4.06286 24.8956L13.0004 15.9372L21.9379 24.8956C22.1315 25.0908 22.3619 25.2458 22.6158 25.3516C22.8697 25.4574 23.142 25.5118 23.417 25.5118C23.692 25.5118 23.9644 25.4574 24.2182 25.3516C24.4721 25.2458 24.7025 25.0908 24.8962 24.8956C25.0915 24.7019 25.2464 24.4715 25.3522 24.2176C25.458 23.9637 25.5124 23.6914 25.5124 23.4164C25.5124 23.1414 25.458 22.8691 25.3522 22.6152C25.2464 22.3613 25.0915 22.1309 24.8962 21.9372L15.9379 12.9997Z" fill="black"/>
</svg>
